<?xml version="1.0" encoding="UTF-8"?>
<svg width="70px" height="94px" viewBox="0 0 70 94" version="1.1" xmlns="http://www.w3.org/2000/svg" xmlns:xlink="http://www.w3.org/1999/xlink">
    <!-- Generator: sketchtool 52.5 (67469) - http://www.bohemiancoding.com/sketch -->
    <title>78218218-8DC3-4147-AD53-B32DC4E2605B</title>
    <desc>Created with sketchtool.</desc>
    <g id="Web-App" stroke="none" strokeWidth="1" fill="none" fill-rule="evenodd">
        <g id="Settings-&gt;-Schedules-(Empty)" transform="translate(-735.000000, -325.000000)" fill="#D6DEE4">
            <g id="noun_No-File-Found_140281-(1)" transform="translate(735.000000, 325.000000)">
                <g id="Group">
                    <path d="M68.6724138,24.9461538 L45.5,1.80769231 C44.7758621,1.08461538 43.8103448,0.723076923 42.7241379,0.723076923 L3.98275862,0.723076923 C1.81034483,0.723076923 0.120689655,2.41025641 0.120689655,4.57948718 L0.120689655,89.6615385 C0.120689655,91.8307692 1.81034483,93.5179487 3.98275862,93.5179487 L65.8965517,93.5179487 C68.0689655,93.5179487 69.7586207,91.8307692 69.7586207,89.6615385 L69.7586207,27.7179487 C69.8793103,26.6333333 69.5172414,25.6692308 68.6724138,24.9461538 Z M46.5862069,13.8589744 L56.6034483,23.8615385 L46.5862069,23.8615385 L46.5862069,13.8589744 Z M31.137931,8.31538462 C35.362069,8.31538462 38.862069,11.8102564 38.862069,16.0282051 L38.862069,27.7179487 C38.862069,29.8871795 40.5517241,31.574359 42.7241379,31.574359 L62.0344828,31.574359 L62.0344828,85.6846154 L7.84482759,85.6846154 L7.84482759,8.31538462 L31.137931,8.31538462 Z" id="Shape" fill-rule="nonzero"></path>
                    <path d="M29.5689655,58.5692308 L16.7758621,71.3435897 C15.2068966,72.9102564 15.2068966,75.3205128 16.7758621,76.7666667 C18.3448276,78.3333333 20.7586207,78.3333333 22.2068966,76.7666667 L35,64.1128205 L47.7931034,76.8871795 C49.362069,78.4538462 51.7758621,78.4538462 53.2241379,76.8871795 C54.7931034,75.3205128 54.7931034,72.9102564 53.2241379,71.4641026 L40.4310345,58.5692308 L53.2241379,45.7948718 C54.7931034,44.2282051 54.7931034,41.8179487 53.2241379,40.3717949 C51.6551724,38.8051282 49.2413793,38.8051282 47.7931034,40.3717949 L35,53.1461538 L22.2068966,40.3717949 C20.637931,38.8051282 18.2241379,38.8051282 16.7758621,40.3717949 C15.2068966,41.9384615 15.2068966,44.3487179 16.7758621,45.7948718 L29.5689655,58.5692308 Z" id="Path"></path>
                </g>
            </g>
        </g>
    </g>
</svg>